<svg xmlns="http://www.w3.org/2000/svg" viewBox="0 0 441.75 104.3"><defs><style>.cls-1{fill:#939494;}.cls-2{fill:#e6290f;}.cls-3{fill:#605f5e;}</style></defs><g id="图层_2" data-name="图层 2"><g id="图层_1-2" data-name="图层 1"><rect class="cls-1" width="31.29" height="31.29" rx="7.82"/><rect class="cls-1" x="73.01" y="73.01" width="31.29" height="31.29" rx="7.82"/><path class="cls-2" d="M104.3,35.2V11.73A11.73,11.73,0,0,0,92.57,0H69.1A11.74,11.74,0,0,0,57.36,11.73V28a23.46,23.46,0,0,1-6.87,16.59l-5.9,5.9A23.46,23.46,0,0,1,28,57.36H11.73A11.74,11.74,0,0,0,0,69.1V92.57A11.73,11.73,0,0,0,11.73,104.3H35.2A11.73,11.73,0,0,0,46.93,92.57V76.3a23.47,23.47,0,0,1,6.88-16.59l5.9-5.9A23.47,23.47,0,0,1,76.3,46.93H92.57A11.73,11.73,0,0,0,104.3,35.2Z"/><path class="cls-3" d="M171.28,70.38c1.3.75,2.8,1.91,5.05,3.28,4.58,2.8,10.38,3.21,17.89,3.21a234.85,234.85,0,0,0,25.06-1.5,26.8,26.8,0,0,0-2,7c-4.71.34-16,.68-23.35.68-8.33,0-13.93-.82-18.64-3.62-2.73-1.57-5.12-3.75-6.56-3.75-2.18,0-5.46,4.16-8.67,8.4l-4.3-6c3.07-3.28,6.35-6,9.28-7.38V50.17h-8.87V44.3h15.09Zm-1.57-33c-2.67-2.46-8.06-6.55-12-9.35L162,24c3.83,2.59,9.29,6.35,12.09,8.74Zm9.56,32.23a1,1,0,0,0-.14.41,51.29,51.29,0,0,0-2.32-6.28c1.3-.34,2.46-1.78,3.75-3.83a78.31,78.31,0,0,0,7.17-14h-13V40.06h43.43v5.88H195.45A111.76,111.76,0,0,1,186,62.6l19.73-1.51c-2-3.55-4.1-7.17-6-10.24l5.33-2.46c4,6.42,9.35,15.16,11.88,20.28l-5.67,3c-.68-1.5-1.57-3.28-2.53-5.12-24.1,2.18-27.31,2.59-29.49,3.48Zm34.28-38.92H179.27V24.77h34.28Z"/><path class="cls-3" d="M254,55.84a27.6,27.6,0,0,0-.21,5.25c-16.52,3.21-19.05,4-20.55,4.85a36.1,36.1,0,0,0-1.91-5.32c1.57-.41,3.14-2,5.19-4.58a79,79,0,0,0,6.07-8.26c-7.3,1-8.87,1.3-9.9,1.84A50.38,50.38,0,0,0,230.82,44c1.16-.28,2.32-1.92,3.82-4.17a91.84,91.84,0,0,0,8.61-18.91l5.67,2.66A110.26,110.26,0,0,1,238.54,43.2l7.51-.68a80.28,80.28,0,0,0,4.3-7.92l5,3A131.22,131.22,0,0,1,241.54,58Zm-22.61,18c5.95-1.16,14.82-3.27,23.56-5.32l.62,5.39c-8.06,2.12-16.6,4.24-23.08,6Zm62.07,5.06H265.85V83.7h-6V46.21c-1.23,1.64-2.46,3.28-3.75,4.71a39.49,39.49,0,0,0-2.94-5.74c5.26-6.21,10-16.18,12.15-24L271.45,23a101.19,101.19,0,0,1-4.1,10.11h10.38a44.79,44.79,0,0,0-4.37-9.63l5.33-2.18a42.37,42.37,0,0,1,4.85,9.35l-5.47,2.46h14.55v5.73H281.49v7.38h9.42v5.73h-9.42v7.45h9.56v5.67h-9.56v8h12ZM275.61,38.83h-9.76v7.38h9.76Zm0,13.11h-9.76v7.45h9.76ZM265.85,73h9.76v-8h-9.76Z"/><path class="cls-3" d="M368.14,60.34H340.75V83.56H334.2V60.34h-27V53.92h27V31.53H310.71V25.31h53.53v6.22H340.75V53.92h27.39Zm-47.26-26c2.53,4.71,5.13,10.79,6,14.75l-6.07,2.05a74.17,74.17,0,0,0-5.67-15Zm26.43,15.09A91.71,91.71,0,0,0,354,34.05l6.76,1.85a130.82,130.82,0,0,1-8,15.29Z"/><path class="cls-3" d="M423.79,27.91c6.42,5.8,14.41,14.2,18,19.8l-5.33,4a53.36,53.36,0,0,0-4-5.6c-37.56,2-41.93,2.12-45,3.21a58.7,58.7,0,0,0-2-6.21c1.64-.28,3.35-1.71,5.6-3.89A109.75,109.75,0,0,0,406.1,20.26L412.45,23a134,134,0,0,1-16.32,18.85l31.75-1.3c-2.93-3.28-6.07-6.55-9-9.29ZM390.53,54.47h44.25v29H428V79.94H397v3.62h-6.42ZM397,60.55V73.8H428V60.55Z"/></g></g></svg>
